<?xml version="1.0" standalone="no"?>
<!DOCTYPE svg PUBLIC "-//W3C//DTD SVG 20010904//EN"
 "http://www.w3.org/TR/2001/REC-SVG-20010904/DTD/svg10.dtd">
<svg version="1.0" xmlns="http://www.w3.org/2000/svg"
 width="490.000000pt" height="490.000000pt" viewBox="0 0 490.000000 490.000000"
 preserveAspectRatio="xMidYMid meet">

<g transform="translate(0.000000,490.000000) scale(0.100000,-0.100000)"
fill="#000000" stroke="none">
<path d="M283 4875 c-103 -32 -194 -113 -241 -213 l-27 -57 0 -2150 0 -2150
24 -59 c32 -81 126 -175 207 -207 l59 -24 1695 2 c932 0 1727 0 1765 0 325 -7
413 7 590 95 405 202 614 655 506 1096 -53 213 -203 431 -378 550 -195 133
-388 186 -623 171 -52 -3 -98 -4 -102 -2 -5 2 -8 658 -8 1456 -1 1126 -3 1456
-13 1468 -7 9 -22 21 -34 27 -34 18 -3362 16 -3420 -3z m3277 -1594 l0 -1419
-42 -17 c-68 -27 -197 -118 -270 -190 -75 -74 -161 -198 -202 -293 -93 -213
-106 -468 -34 -692 48 -149 150 -307 266 -412 29 -25 52 -49 52 -52 0 -3 -669
-6 -1487 -6 -1425 0 -1490 1 -1528 19 -48 22 -79 54 -100 103 -13 33 -15 264
-15 2130 0 2013 1 2095 19 2133 20 44 51 76 96 99 27 14 201 16 1638 16 l1607
0 0 -1419z m566 -1561 c224 -57 424 -232 515 -450 100 -238 69 -542 -75 -744
-108 -151 -254 -247 -451 -296 -78 -19 -107 -22 -225 -17 -151 5 -227 24 -340
83 -221 116 -359 325 -388 591 -28 244 58 476 237 646 197 185 463 254 727
187z"/>
<path d="M727 4176 c-14 -13 -28 -39 -32 -57 -3 -19 -5 -251 -3 -516 l3 -483
28 -27 27 -28 1113 -3 c611 -1 1123 0 1135 3 13 3 35 18 48 32 l24 26 0 509 0
510 -29 29 -29 29 -1130 0 -1129 0 -26 -24z m2151 -543 c-2 -208 -6 -377 -10
-375 -5 1 -453 2 -998 2 l-990 0 0 368 c0 203 3 372 7 375 3 4 453 7 1000 7
l993 0 -2 -377z"/>
<path d="M639 2491 c-21 -22 -29 -39 -29 -66 0 -27 8 -44 29 -66 l29 -29 1210
0 1209 0 27 21 c38 30 49 64 36 105 -23 69 71 64 -1270 64 l-1212 0 -29 -29z"/>
<path d="M685 1982 c-68 -23 -97 -96 -60 -148 30 -44 40 -45 683 -42 l614 3
29 33 c38 42 38 82 0 124 l-29 33 -609 2 c-334 1 -617 -2 -628 -5z"/>
<path d="M3873 1486 l-28 -24 -3 -195 -3 -195 -32 -5 c-18 -3 -89 -2 -158 1
-69 2 -143 2 -163 -2 -86 -16 -117 -108 -55 -160 34 -29 24 -28 265 -26 127 1
142 -1 148 -17 4 -10 4 -87 0 -171 -6 -129 -4 -159 10 -196 38 -100 156 -84
176 24 5 25 6 116 3 202 l-6 157 202 3 203 3 24 28 c50 59 19 138 -62 153 -20
4 -96 4 -168 2 -72 -3 -146 -3 -163 -1 l-33 5 0 195 c0 193 0 194 -25 218 -33
34 -93 34 -132 1z"/>
</g>
</svg>
